<mxfile modified="2022-03-24T06:23:59.471Z" host="app.diagrams.net" agent="5.0 (Windows NT 10.0; Win64; x64) AppleWebKit/537.36 (KHTML, like Gecko) Chrome/99.0.4844.74 Safari/537.36" etag="OHxy6PoZwOtnwLc-zCyV" version="17.1.5" type="github">
  <diagram id="d1ab7348-05c3-a1e3-ca4d-12c340fd6b49" name="Page-1">
    <mxGraphModel dx="1422" dy="882" grid="1" gridSize="10" guides="1" tooltips="1" connect="1" arrows="1" fold="1" page="1" pageScale="1" pageWidth="1169" pageHeight="827" background="none" math="0" shadow="0">
      <root>
        <mxCell id="0" />
        <mxCell id="1" parent="0" />
        <mxCell id="AE8LTrn44UM5D20SRycZ-576" value="仓库目录" style="fillColor=#F6F6F6;strokeColor=none;shadow=0;gradientColor=none;fontSize=14;align=left;spacing=10;fontColor=#717171;9E9E9E;verticalAlign=top;spacingTop=-4;fontStyle=0;spacingLeft=40;html=1;" vertex="1" parent="1">
          <mxGeometry x="1240" y="827.5" width="431.5" height="241.25" as="geometry" />
        </mxCell>
        <mxCell id="AE8LTrn44UM5D20SRycZ-537" value="&lt;b&gt;APP非灰度节点&lt;/b&gt;" style="fillColor=#F6F6F6;strokeColor=none;shadow=0;gradientColor=none;fontSize=14;align=left;spacing=10;fontColor=#717171;9E9E9E;verticalAlign=top;spacingTop=-4;fontStyle=0;spacingLeft=40;html=1;" vertex="1" parent="1">
          <mxGeometry x="170" y="972.5" width="470" height="126.25" as="geometry" />
        </mxCell>
        <mxCell id="AE8LTrn44UM5D20SRycZ-585" style="edgeStyle=orthogonalEdgeStyle;rounded=0;orthogonalLoop=1;jettySize=auto;html=1;entryX=-0.005;entryY=0.549;entryDx=0;entryDy=0;entryPerimeter=0;fontSize=9;endArrow=classic;endFill=1;strokeColor=#4284F3;strokeWidth=2;" edge="1" parent="1" source="AE8LTrn44UM5D20SRycZ-530" target="AE8LTrn44UM5D20SRycZ-576">
          <mxGeometry relative="1" as="geometry" />
        </mxCell>
        <mxCell id="AE8LTrn44UM5D20SRycZ-586" value="git push" style="edgeLabel;html=1;align=center;verticalAlign=middle;resizable=0;points=[];fontSize=9;" vertex="1" connectable="0" parent="AE8LTrn44UM5D20SRycZ-585">
          <mxGeometry x="0.2421" y="1" relative="1" as="geometry">
            <mxPoint as="offset" />
          </mxGeometry>
        </mxCell>
        <mxCell id="AE8LTrn44UM5D20SRycZ-591" value="流水线-制品生成" style="edgeStyle=orthogonalEdgeStyle;rounded=0;orthogonalLoop=1;jettySize=auto;html=1;entryX=1;entryY=0.5;entryDx=0;entryDy=0;fontSize=9;endArrow=classic;endFill=1;strokeColor=#4284F3;strokeWidth=2;exitX=0.5;exitY=1;exitDx=0;exitDy=0;" edge="1" parent="1" source="AE8LTrn44UM5D20SRycZ-530" target="AE8LTrn44UM5D20SRycZ-587">
          <mxGeometry x="-0.1259" relative="1" as="geometry">
            <Array as="points">
              <mxPoint x="1057" y="1178" />
            </Array>
            <mxPoint as="offset" />
          </mxGeometry>
        </mxCell>
        <mxCell id="AE8LTrn44UM5D20SRycZ-530" value="" style="strokeColor=#dddddd;fillColor=#ffffff;shadow=1;strokeWidth=1;rounded=1;absoluteArcSize=1;arcSize=2;fontSize=12;fontColor=#9E9E9E;align=center;html=1;" vertex="1" parent="1">
          <mxGeometry x="997" y="930" width="120" height="60" as="geometry" />
        </mxCell>
        <mxCell id="AE8LTrn44UM5D20SRycZ-496" value="&lt;b&gt;APP灰度节点&lt;/b&gt;" style="fillColor=#F6F6F6;strokeColor=none;shadow=0;gradientColor=none;fontSize=14;align=left;spacing=10;fontColor=#717171;9E9E9E;verticalAlign=top;spacingTop=-4;fontStyle=0;spacingLeft=40;html=1;" vertex="1" parent="1">
          <mxGeometry x="170" y="813.75" width="470" height="126.25" as="geometry" />
        </mxCell>
        <mxCell id="AE8LTrn44UM5D20SRycZ-461" value="" style="shape=mxgraph.gcp2.doubleRect;strokeColor=#dddddd;fillColor=#ffffff;shadow=1;strokeWidth=1;fontSize=12;fontColor=#9E9E9E;align=center;html=1;" vertex="1" parent="1">
          <mxGeometry x="180" y="860" width="179.5" height="60" as="geometry" />
        </mxCell>
        <mxCell id="AE8LTrn44UM5D20SRycZ-462" value="&lt;font color=&quot;#000000&quot;&gt;App&lt;/font&gt;&lt;br&gt;node 1" style="dashed=0;connectable=0;html=1;fillColor=#5184F3;strokeColor=none;shape=mxgraph.gcp2.hexIcon;prIcon=compute_engine;part=1;labelPosition=right;verticalLabelPosition=middle;align=left;verticalAlign=middle;spacingLeft=5;fontColor=#999999;fontSize=12;" vertex="1" parent="AE8LTrn44UM5D20SRycZ-461">
          <mxGeometry y="0.5" width="44" height="39" relative="1" as="geometry">
            <mxPoint x="6" y="-23" as="offset" />
          </mxGeometry>
        </mxCell>
        <mxCell id="AE8LTrn44UM5D20SRycZ-535" value="灰度同步" style="edgeStyle=orthogonalEdgeStyle;rounded=0;orthogonalLoop=1;jettySize=auto;html=1;entryX=1;entryY=0.5;entryDx=0;entryDy=0;fontSize=9;strokeColor=#4284F3;strokeWidth=2;" edge="1" parent="1" source="AE8LTrn44UM5D20SRycZ-506" target="AE8LTrn44UM5D20SRycZ-518">
          <mxGeometry relative="1" as="geometry" />
        </mxCell>
        <mxCell id="AE8LTrn44UM5D20SRycZ-546" style="edgeStyle=orthogonalEdgeStyle;rounded=0;orthogonalLoop=1;jettySize=auto;html=1;entryX=1;entryY=0.5;entryDx=0;entryDy=0;fontSize=9;strokeColor=#4284F3;strokeWidth=2;" edge="1" parent="1" source="AE8LTrn44UM5D20SRycZ-506" target="AE8LTrn44UM5D20SRycZ-541">
          <mxGeometry relative="1" as="geometry" />
        </mxCell>
        <mxCell id="AE8LTrn44UM5D20SRycZ-548" value="正式同步" style="edgeLabel;html=1;align=center;verticalAlign=middle;resizable=0;points=[];fontSize=9;" vertex="1" connectable="0" parent="AE8LTrn44UM5D20SRycZ-546">
          <mxGeometry x="0.1207" y="-1" relative="1" as="geometry">
            <mxPoint as="offset" />
          </mxGeometry>
        </mxCell>
        <mxCell id="AE8LTrn44UM5D20SRycZ-549" value="CR审核入仓" style="edgeStyle=orthogonalEdgeStyle;rounded=0;orthogonalLoop=1;jettySize=auto;html=1;entryX=0;entryY=0.5;entryDx=0;entryDy=0;fontSize=9;strokeColor=#4284F3;strokeWidth=2;" edge="1" parent="1" source="AE8LTrn44UM5D20SRycZ-506" target="AE8LTrn44UM5D20SRycZ-530">
          <mxGeometry relative="1" as="geometry" />
        </mxCell>
        <mxCell id="AE8LTrn44UM5D20SRycZ-506" value="" style="strokeColor=#dddddd;fillColor=#ffffff;shadow=1;strokeWidth=1;rounded=1;absoluteArcSize=1;arcSize=2;fontSize=12;fontColor=#9E9E9E;align=center;html=1;" vertex="1" parent="1">
          <mxGeometry x="740" y="930" width="150" height="60" as="geometry" />
        </mxCell>
        <mxCell id="AE8LTrn44UM5D20SRycZ-507" value="&lt;font color=&quot;#000000&quot;&gt;配置中心&lt;/font&gt;&lt;br&gt;" style="dashed=0;connectable=0;html=1;fillColor=#5184F3;strokeColor=none;shape=mxgraph.gcp2.hexIcon;prIcon=cloud_storage;part=1;labelPosition=right;verticalLabelPosition=middle;align=left;verticalAlign=middle;spacingLeft=5;fontColor=#999999;fontSize=12;" vertex="1" parent="AE8LTrn44UM5D20SRycZ-506">
          <mxGeometry y="0.5" width="44" height="39" relative="1" as="geometry">
            <mxPoint x="5" y="-19.5" as="offset" />
          </mxGeometry>
        </mxCell>
        <mxCell id="AE8LTrn44UM5D20SRycZ-527" value="落盘" style="edgeStyle=orthogonalEdgeStyle;rounded=0;orthogonalLoop=1;jettySize=auto;html=1;entryX=0.825;entryY=0.5;entryDx=0;entryDy=0;entryPerimeter=0;fontSize=9;strokeColor=#4284F3;strokeWidth=2;" edge="1" parent="1" source="AE8LTrn44UM5D20SRycZ-518" target="AE8LTrn44UM5D20SRycZ-520">
          <mxGeometry relative="1" as="geometry" />
        </mxCell>
        <mxCell id="AE8LTrn44UM5D20SRycZ-518" value="" style="strokeColor=#dddddd;shadow=1;strokeWidth=1;rounded=1;absoluteArcSize=1;arcSize=2;fontSize=9;" vertex="1" parent="1">
          <mxGeometry x="520" y="870" width="100" height="40" as="geometry" />
        </mxCell>
        <mxCell id="AE8LTrn44UM5D20SRycZ-519" value="&lt;font color=&quot;#000000&quot;&gt;配置SDK&lt;/font&gt;" style="sketch=0;dashed=0;connectable=0;html=1;fillColor=#5184F3;strokeColor=none;shape=mxgraph.gcp2.hexIcon;prIcon=cloud_functions;part=1;labelPosition=right;verticalLabelPosition=middle;align=left;verticalAlign=middle;spacingLeft=5;fontColor=#999999;fontSize=12;" vertex="1" parent="AE8LTrn44UM5D20SRycZ-518">
          <mxGeometry y="0.5" width="30" height="29.5" relative="1" as="geometry">
            <mxPoint x="5" y="-14" as="offset" />
          </mxGeometry>
        </mxCell>
        <mxCell id="AE8LTrn44UM5D20SRycZ-533" value="同步内存" style="edgeStyle=orthogonalEdgeStyle;rounded=0;orthogonalLoop=1;jettySize=auto;html=1;fontSize=9;strokeColor=#4284F3;strokeWidth=2;" edge="1" parent="1" source="AE8LTrn44UM5D20SRycZ-520" target="AE8LTrn44UM5D20SRycZ-461">
          <mxGeometry relative="1" as="geometry" />
        </mxCell>
        <mxCell id="AE8LTrn44UM5D20SRycZ-529" value="" style="verticalLabelPosition=bottom;html=1;verticalAlign=top;align=center;strokeColor=none;fillColor=#00BEF2;shape=mxgraph.azure.git_repository;fontSize=9;" vertex="1" parent="1">
          <mxGeometry x="1007" y="945" width="30" height="30" as="geometry" />
        </mxCell>
        <mxCell id="AE8LTrn44UM5D20SRycZ-532" value="Git仓库" style="text;html=1;strokeColor=none;fillColor=none;align=center;verticalAlign=middle;whiteSpace=wrap;rounded=0;fontSize=9;" vertex="1" parent="1">
          <mxGeometry x="1049.5" y="947.5" width="45" height="25" as="geometry" />
        </mxCell>
        <mxCell id="AE8LTrn44UM5D20SRycZ-534" value="&lt;font color=&quot;#9e9e9e&quot; face=&quot;helvetica&quot;&gt;服务与配置中心通过文件交互&lt;/font&gt;" style="text;whiteSpace=wrap;html=1;fontSize=9;" vertex="1" parent="1">
          <mxGeometry x="359.5" y="760" width="161.75" height="20" as="geometry" />
        </mxCell>
        <mxCell id="AE8LTrn44UM5D20SRycZ-538" value="" style="shape=mxgraph.gcp2.doubleRect;strokeColor=#dddddd;fillColor=#ffffff;shadow=1;strokeWidth=1;fontSize=12;fontColor=#9E9E9E;align=center;html=1;" vertex="1" parent="1">
          <mxGeometry x="180" y="1018.75" width="179.5" height="60" as="geometry" />
        </mxCell>
        <mxCell id="AE8LTrn44UM5D20SRycZ-539" value="&lt;font color=&quot;#000000&quot;&gt;App&lt;/font&gt;&lt;br&gt;node 2" style="dashed=0;connectable=0;html=1;fillColor=#5184F3;strokeColor=none;shape=mxgraph.gcp2.hexIcon;prIcon=compute_engine;part=1;labelPosition=right;verticalLabelPosition=middle;align=left;verticalAlign=middle;spacingLeft=5;fontColor=#999999;fontSize=12;" vertex="1" parent="AE8LTrn44UM5D20SRycZ-538">
          <mxGeometry y="0.5" width="44" height="39" relative="1" as="geometry">
            <mxPoint x="6" y="-23" as="offset" />
          </mxGeometry>
        </mxCell>
        <mxCell id="AE8LTrn44UM5D20SRycZ-540" value="落盘" style="edgeStyle=orthogonalEdgeStyle;rounded=0;orthogonalLoop=1;jettySize=auto;html=1;entryX=0.825;entryY=0.5;entryDx=0;entryDy=0;entryPerimeter=0;fontSize=9;strokeColor=#4284F3;strokeWidth=2;" edge="1" parent="1" source="AE8LTrn44UM5D20SRycZ-541" target="AE8LTrn44UM5D20SRycZ-544">
          <mxGeometry relative="1" as="geometry" />
        </mxCell>
        <mxCell id="AE8LTrn44UM5D20SRycZ-541" value="" style="strokeColor=#dddddd;shadow=1;strokeWidth=1;rounded=1;absoluteArcSize=1;arcSize=2;fontSize=9;" vertex="1" parent="1">
          <mxGeometry x="520" y="1028.75" width="100" height="40" as="geometry" />
        </mxCell>
        <mxCell id="AE8LTrn44UM5D20SRycZ-542" value="&lt;font color=&quot;#000000&quot;&gt;配置SDK&lt;/font&gt;" style="sketch=0;dashed=0;connectable=0;html=1;fillColor=#5184F3;strokeColor=none;shape=mxgraph.gcp2.hexIcon;prIcon=cloud_functions;part=1;labelPosition=right;verticalLabelPosition=middle;align=left;verticalAlign=middle;spacingLeft=5;fontColor=#999999;fontSize=12;" vertex="1" parent="AE8LTrn44UM5D20SRycZ-541">
          <mxGeometry y="0.5" width="30" height="29.5" relative="1" as="geometry">
            <mxPoint x="5" y="-14" as="offset" />
          </mxGeometry>
        </mxCell>
        <mxCell id="AE8LTrn44UM5D20SRycZ-543" value="同步内存" style="edgeStyle=orthogonalEdgeStyle;rounded=0;orthogonalLoop=1;jettySize=auto;html=1;fontSize=9;strokeColor=#4284F3;strokeWidth=2;" edge="1" parent="1" source="AE8LTrn44UM5D20SRycZ-544" target="AE8LTrn44UM5D20SRycZ-538">
          <mxGeometry relative="1" as="geometry" />
        </mxCell>
        <mxCell id="AE8LTrn44UM5D20SRycZ-547" value="" style="endArrow=none;dashed=1;html=1;dashPattern=1 3;strokeWidth=2;rounded=0;fontSize=9;" edge="1" parent="1">
          <mxGeometry width="50" height="50" relative="1" as="geometry">
            <mxPoint x="440" y="1120" as="sourcePoint" />
            <mxPoint x="440" y="780" as="targetPoint" />
          </mxGeometry>
        </mxCell>
        <mxCell id="AE8LTrn44UM5D20SRycZ-544" value="&lt;font style=&quot;font-size: 9px&quot;&gt;配置文件&lt;/font&gt;" style="sketch=0;html=1;fillColor=#5184F3;strokeColor=none;verticalAlign=top;labelPosition=center;verticalLabelPosition=bottom;align=center;spacingTop=-6;fontSize=11;fontStyle=1;fontColor=#999999;shape=mxgraph.gcp2.hexIcon;prIcon=cloud_filestore" vertex="1" parent="1">
          <mxGeometry x="420" y="1033.75" width="36.5" height="30" as="geometry" />
        </mxCell>
        <mxCell id="AE8LTrn44UM5D20SRycZ-520" value="&lt;font style=&quot;font-size: 9px&quot;&gt;配置文件&lt;/font&gt;" style="sketch=0;html=1;fillColor=#5184F3;strokeColor=none;verticalAlign=top;labelPosition=center;verticalLabelPosition=bottom;align=center;spacingTop=-6;fontSize=11;fontStyle=1;fontColor=#999999;shape=mxgraph.gcp2.hexIcon;prIcon=cloud_filestore" vertex="1" parent="1">
          <mxGeometry x="420" y="875" width="36.5" height="30" as="geometry" />
        </mxCell>
        <mxCell id="AE8LTrn44UM5D20SRycZ-550" value="" style="rounded=0;whiteSpace=wrap;html=1;fillColor=none;strokeWidth=1;dashed=1;" vertex="1" parent="1">
          <mxGeometry x="40" y="1370" width="650" height="533" as="geometry" />
        </mxCell>
        <mxCell id="AE8LTrn44UM5D20SRycZ-552" value="APP" style="rounded=1;whiteSpace=wrap;html=1;fillColor=#d5e8d4;strokeColor=#82b366;" vertex="1" parent="1">
          <mxGeometry x="1256" y="868.75" width="75.5" height="20" as="geometry" />
        </mxCell>
        <mxCell id="AE8LTrn44UM5D20SRycZ-553" style="edgeStyle=orthogonalEdgeStyle;rounded=0;orthogonalLoop=1;jettySize=auto;html=1;entryX=0;entryY=0.5;entryDx=0;entryDy=0;endArrow=none;endFill=0;" edge="1" parent="1" target="AE8LTrn44UM5D20SRycZ-557">
          <mxGeometry relative="1" as="geometry">
            <Array as="points">
              <mxPoint x="824.5" y="1647" />
            </Array>
            <mxPoint x="824.5" y="1600" as="sourcePoint" />
          </mxGeometry>
        </mxCell>
        <mxCell id="AE8LTrn44UM5D20SRycZ-554" style="edgeStyle=orthogonalEdgeStyle;rounded=0;orthogonalLoop=1;jettySize=auto;html=1;entryX=0;entryY=0.5;entryDx=0;entryDy=0;endArrow=none;endFill=0;" edge="1" parent="1" target="AE8LTrn44UM5D20SRycZ-559">
          <mxGeometry relative="1" as="geometry">
            <Array as="points">
              <mxPoint x="824.5" y="1775" />
            </Array>
            <mxPoint x="824.5" y="1600" as="sourcePoint" />
          </mxGeometry>
        </mxCell>
        <mxCell id="AE8LTrn44UM5D20SRycZ-556" style="edgeStyle=orthogonalEdgeStyle;rounded=0;orthogonalLoop=1;jettySize=auto;html=1;entryX=0;entryY=0.5;entryDx=0;entryDy=0;startArrow=none;startFill=0;endArrow=none;endFill=0;" edge="1" parent="1" source="AE8LTrn44UM5D20SRycZ-557" target="AE8LTrn44UM5D20SRycZ-560">
          <mxGeometry relative="1" as="geometry" />
        </mxCell>
        <mxCell id="AE8LTrn44UM5D20SRycZ-557" value="&lt;span&gt;production&lt;/span&gt;" style="rounded=1;whiteSpace=wrap;html=1;fillColor=#d5e8d4;strokeColor=#82b366;" vertex="1" parent="1">
          <mxGeometry x="900.5" y="1617" width="120" height="60" as="geometry" />
        </mxCell>
        <mxCell id="AE8LTrn44UM5D20SRycZ-558" style="edgeStyle=orthogonalEdgeStyle;rounded=0;orthogonalLoop=1;jettySize=auto;html=1;entryX=0;entryY=0.5;entryDx=0;entryDy=0;startArrow=none;startFill=0;endArrow=none;endFill=0;" edge="1" parent="1" source="AE8LTrn44UM5D20SRycZ-559" target="AE8LTrn44UM5D20SRycZ-561">
          <mxGeometry relative="1" as="geometry" />
        </mxCell>
        <mxCell id="AE8LTrn44UM5D20SRycZ-559" value="&lt;span&gt;test&lt;/span&gt;" style="rounded=1;whiteSpace=wrap;html=1;fillColor=#d5e8d4;strokeColor=#82b366;" vertex="1" parent="1">
          <mxGeometry x="906.5" y="1745" width="120" height="60" as="geometry" />
        </mxCell>
        <mxCell id="AE8LTrn44UM5D20SRycZ-560" value="mixer-dynamic.yaml" style="rounded=0;whiteSpace=wrap;html=1;fillColor=#f5f5f5;fontColor=#333333;strokeColor=#666666;" vertex="1" parent="1">
          <mxGeometry x="1085.5" y="1634.5" width="137" height="25" as="geometry" />
        </mxCell>
        <mxCell id="AE8LTrn44UM5D20SRycZ-561" value="mixer-dynamic.yaml" style="rounded=0;whiteSpace=wrap;html=1;fillColor=#f5f5f5;fontColor=#333333;strokeColor=#666666;" vertex="1" parent="1">
          <mxGeometry x="1085.5" y="1762.5" width="137" height="25" as="geometry" />
        </mxCell>
        <mxCell id="AE8LTrn44UM5D20SRycZ-562" style="edgeStyle=orthogonalEdgeStyle;rounded=0;orthogonalLoop=1;jettySize=auto;html=1;entryX=0;entryY=0.5;entryDx=0;entryDy=0;startArrow=none;startFill=0;endArrow=none;endFill=0;" edge="1" parent="1" source="AE8LTrn44UM5D20SRycZ-563" target="AE8LTrn44UM5D20SRycZ-564">
          <mxGeometry relative="1" as="geometry" />
        </mxCell>
        <mxCell id="AE8LTrn44UM5D20SRycZ-563" value="&lt;span&gt;dev&lt;/span&gt;" style="rounded=1;whiteSpace=wrap;html=1;fillColor=#d5e8d4;strokeColor=#82b366;" vertex="1" parent="1">
          <mxGeometry x="906.5" y="1873" width="120" height="60" as="geometry" />
        </mxCell>
        <mxCell id="AE8LTrn44UM5D20SRycZ-564" value="mixer-dynamic.yaml" style="rounded=0;whiteSpace=wrap;html=1;fillColor=#f5f5f5;fontColor=#333333;strokeColor=#666666;" vertex="1" parent="1">
          <mxGeometry x="1085.5" y="1890.5" width="137" height="25" as="geometry" />
        </mxCell>
        <mxCell id="AE8LTrn44UM5D20SRycZ-565" style="edgeStyle=orthogonalEdgeStyle;rounded=0;orthogonalLoop=1;jettySize=auto;html=1;entryX=0;entryY=0.5;entryDx=0;entryDy=0;endArrow=none;endFill=0;exitX=0.5;exitY=1;exitDx=0;exitDy=0;" edge="1" parent="1" target="AE8LTrn44UM5D20SRycZ-563">
          <mxGeometry relative="1" as="geometry">
            <mxPoint x="824.5" y="1600" as="sourcePoint" />
            <mxPoint x="916.5" y="1785" as="targetPoint" />
            <Array as="points">
              <mxPoint x="824.5" y="1903" />
            </Array>
          </mxGeometry>
        </mxCell>
        <mxCell id="AE8LTrn44UM5D20SRycZ-571" style="edgeStyle=orthogonalEdgeStyle;rounded=0;orthogonalLoop=1;jettySize=auto;html=1;entryX=0;entryY=0.5;entryDx=0;entryDy=0;fontSize=9;endArrow=none;endFill=0;strokeColor=#4284F3;strokeWidth=2;" edge="1" parent="1" source="AE8LTrn44UM5D20SRycZ-568" target="AE8LTrn44UM5D20SRycZ-570">
          <mxGeometry relative="1" as="geometry">
            <Array as="points">
              <mxPoint x="1387.5" y="961.75" />
              <mxPoint x="1453.5" y="961.75" />
            </Array>
          </mxGeometry>
        </mxCell>
        <mxCell id="AE8LTrn44UM5D20SRycZ-573" style="edgeStyle=orthogonalEdgeStyle;rounded=0;orthogonalLoop=1;jettySize=auto;html=1;entryX=0;entryY=0.5;entryDx=0;entryDy=0;fontSize=9;endArrow=none;endFill=0;strokeColor=#4284F3;strokeWidth=2;" edge="1" parent="1" source="AE8LTrn44UM5D20SRycZ-568" target="AE8LTrn44UM5D20SRycZ-572">
          <mxGeometry relative="1" as="geometry">
            <Array as="points">
              <mxPoint x="1387.5" y="1002.75" />
            </Array>
          </mxGeometry>
        </mxCell>
        <mxCell id="AE8LTrn44UM5D20SRycZ-575" style="edgeStyle=orthogonalEdgeStyle;rounded=0;orthogonalLoop=1;jettySize=auto;html=1;entryX=0;entryY=0.5;entryDx=0;entryDy=0;fontSize=9;endArrow=none;endFill=0;strokeColor=#4284F3;strokeWidth=2;" edge="1" parent="1" source="AE8LTrn44UM5D20SRycZ-568" target="AE8LTrn44UM5D20SRycZ-574">
          <mxGeometry relative="1" as="geometry">
            <Array as="points">
              <mxPoint x="1387.5" y="1043.75" />
            </Array>
          </mxGeometry>
        </mxCell>
        <mxCell id="AE8LTrn44UM5D20SRycZ-568" value="conf" style="rounded=1;whiteSpace=wrap;html=1;fillColor=#d5e8d4;strokeColor=#82b366;" vertex="1" parent="1">
          <mxGeometry x="1350" y="918.75" width="75.5" height="20" as="geometry" />
        </mxCell>
        <mxCell id="AE8LTrn44UM5D20SRycZ-569" style="edgeStyle=orthogonalEdgeStyle;rounded=0;orthogonalLoop=1;jettySize=auto;html=1;exitX=0.5;exitY=1;exitDx=0;exitDy=0;fontSize=9;strokeColor=#4284F3;strokeWidth=2;entryX=0;entryY=0.5;entryDx=0;entryDy=0;endArrow=none;endFill=0;" edge="1" parent="1" source="AE8LTrn44UM5D20SRycZ-552" target="AE8LTrn44UM5D20SRycZ-568">
          <mxGeometry relative="1" as="geometry" />
        </mxCell>
        <mxCell id="AE8LTrn44UM5D20SRycZ-570" value="app-prod-configuration.yaml" style="rounded=0;whiteSpace=wrap;html=1;fillColor=#f5f5f5;fontColor=#333333;strokeColor=#666666;" vertex="1" parent="1">
          <mxGeometry x="1481.5" y="948.75" width="180" height="25" as="geometry" />
        </mxCell>
        <mxCell id="AE8LTrn44UM5D20SRycZ-572" value="app-test-configuration.yaml" style="rounded=0;whiteSpace=wrap;html=1;fillColor=#f5f5f5;fontColor=#333333;strokeColor=#666666;" vertex="1" parent="1">
          <mxGeometry x="1481.5" y="989.75" width="180" height="25" as="geometry" />
        </mxCell>
        <mxCell id="AE8LTrn44UM5D20SRycZ-574" value="app-dev-configuration.yaml" style="rounded=0;whiteSpace=wrap;html=1;fillColor=#f5f5f5;fontColor=#333333;strokeColor=#666666;" vertex="1" parent="1">
          <mxGeometry x="1481.5" y="1030.75" width="180" height="25" as="geometry" />
        </mxCell>
        <mxCell id="AE8LTrn44UM5D20SRycZ-581" value="多人交叉审核配置修改" style="edgeStyle=orthogonalEdgeStyle;rounded=0;orthogonalLoop=1;jettySize=auto;html=1;entryX=0.5;entryY=0;entryDx=0;entryDy=0;fontSize=9;endArrow=classic;endFill=1;strokeColor=#4284F3;strokeWidth=2;" edge="1" parent="1" source="AE8LTrn44UM5D20SRycZ-577" target="AE8LTrn44UM5D20SRycZ-506">
          <mxGeometry relative="1" as="geometry" />
        </mxCell>
        <mxCell id="AE8LTrn44UM5D20SRycZ-577" value="" style="shape=actor;whiteSpace=wrap;html=1;fontSize=9;" vertex="1" parent="1">
          <mxGeometry x="802" y="827" width="26" height="40" as="geometry" />
        </mxCell>
        <mxCell id="AE8LTrn44UM5D20SRycZ-587" value="" style="shape=mxgraph.gcp2.doubleRect;strokeColor=#dddddd;fillColor=#ffffff;shadow=1;strokeWidth=1;fontSize=12;fontColor=#9E9E9E;align=center;html=1;" vertex="1" parent="1">
          <mxGeometry x="740" y="1148" width="150" height="60" as="geometry" />
        </mxCell>
        <mxCell id="AE8LTrn44UM5D20SRycZ-588" value="&lt;font color=&quot;#000000&quot;&gt;App&lt;/font&gt;&lt;br&gt;制品" style="dashed=0;connectable=0;html=1;fillColor=#5184F3;strokeColor=none;shape=mxgraph.gcp2.hexIcon;prIcon=compute_engine;part=1;labelPosition=right;verticalLabelPosition=middle;align=left;verticalAlign=middle;spacingLeft=5;fontColor=#999999;fontSize=12;" vertex="1" parent="AE8LTrn44UM5D20SRycZ-587">
          <mxGeometry y="0.5" width="44" height="39" relative="1" as="geometry">
            <mxPoint x="6" y="-23" as="offset" />
          </mxGeometry>
        </mxCell>
        <mxCell id="AE8LTrn44UM5D20SRycZ-592" value="" style="ellipse;whiteSpace=wrap;html=1;aspect=fixed;fontSize=9;" vertex="1" parent="1">
          <mxGeometry x="830" y="1030" width="80" height="80" as="geometry" />
        </mxCell>
        <mxCell id="AE8LTrn44UM5D20SRycZ-594" value="" style="shape=image;verticalLabelPosition=bottom;labelBackgroundColor=default;verticalAlign=top;aspect=fixed;imageAspect=0;image=data:image/png,iVBORw0KGgoAAAANSUhEUgAAAeEAAAEhCAYAAABIohi6AAAABHNCSVQICAgIfAhkiAAAAAlwSFlzAAAOxAAADsQBlSsOGwAAIABJREFUeJzt3Xt8VOWB//HPmZlMbtwJIENCQAFBwEsdCphaxVZ7T8W4Fd1etvVSu2na/ijblt+21W7t0naR/lqatmu91hWxbcCm7VqrFSumGB1viEiQCiHpAYQguV/m9vvjDCQh95DkmZl8368XL81k5sx3fEm+eZ5zzvNYABUVFVFERERkRFkVFRXRefPmmc4hIiIyquzduxeX6RAiIiKjlUpYRETEEJWwiIiIISphERERQ1TCIiIihqiERUREDFEJi4iIGKISFhERMUQlLCIiYohKWERExBCVsEhcCFC8tphSe3iOGxjy456ZQPFaiuMtlIgBHtMBRIaXTaCXH/Z2eQk7KKBoJdinP80up5yVFOb7uhyzdO1GqrKz+52iuhoKigrxdzqUTWnxVlhZSL7PRw7gO/2tuiYmULwVe2UhXWL1pLKacpvT3nsgbAK2r/31dilO7HwGd8gA5WWVVOfY2PgGeQyR5KASliTnw9/eHpSu3Ypv3UrstVvxrSsk3+8n/+QzT2+DQDkbSgKszO++bHJOFWGA4htKyFm/rsPX5SzdVIif9q+7PUh1dT8+g40dCLC1ZAdllZCbm012wKb/LQw5Z9B0dulGNmyGVSc/n89PDvbgyzNQThl5rM7393gM27bx9f0biUjCUwmL9Cbb0EjNLmXtxiqyl+ew1OfD5/NTuC6fwqF9E2zb18foO8DWzZXkrd7UofN9+NhKqe3v9fcA2w50nV0AykvKyM1bBYEAge5eV17C5rJKcletZ90AftEQSUQqYUl+senTpUuhimoIBE79s7ikBAqKKBzwXG0lO7YWUwVANdVUUt3pa6guLqb81NfZLB1w8JweR+Gd2DaB7trO+SbV4BTeaQcqL9lAWWVu+wi3u1eXllCWu4r1/s6P+1fmsHZrgPxCf/cvBHw+f9eCt0spqcyjYF0+Pb7S7yd/aH/bEIlbKmEZFaqrYWWhn5ySKnx+P5RU4fP7oIT+nIg9jQ3ZqyjqeE60EAgUc0MJrC5aR2Fh5+cHcrqbvvXhy4byQICAz3Z+MSgtZu0OKCjI6X8cnw9/t5/BpnTtBirJZTk2+DsXn9+/qY+RdYCtm2HV+m5+EfDlU8BaigN+eunhrkd0DhjLETu3PqhfgkSSg0pYZEBsAqXlVAFVxcWdvxU7v1u+9eQI+NQ3KCuDPF/3hZXj9+P3gd/vnJ3Oz8cZMVJFIBDoUoB2+QY2s5pNfbVfYCubySUXwO/DLh3IeWSb0rUlsLrnUbK/sIDyG9ZS2stIunOeYjZUr2J9Yecn5+jcr4xiKmFJfj4f2diATRU5+IEuk7eBYtaW51CwtEMh2NXQZRLZhz+/sNupVLt0LdUUdb6a2rbB5zttZNxfOfh9NgE7n/xTb2hTWgJ5BX0VV4DiDWXkrV4NG0oAP36KCdB99q6fZSM7lhexrtcn+1m5upyNa25gx6rVFPVyoZWTuwyyV2EHArH//rYzfd9xqtwuZ8Pm6l6nyEWSiUpYRo9AOdXZS3ssikp8+P3+Ts/PrXIKu9vJ3tJiNlbByRuVqqsrIXsrHQfI1WVlkLeadQOZs+3I58O5ybf9Cu+qyjyW9jF9a5eWUJa3mk1+OBnHl7+UrcUB/H1ksUuL2UoRRb7eb+/CLqdkBxSsXkXJhg2s2ZxLbl4BRYVdyzhQvJEd5EI1+E5938Yu2QGxmQDnIZvcHTlncDuVSGJRCcuoESivJntpIWDjyy5jw9pqqIRVPb3AX9jHSLCaSgo6FOzpw12b0uoyqpb2dBAbuxqqTo0Ey3GuE+s4WvVBVQCb2HnZQDlleUt7P5drl7JxczarN/mh0/XHflbmrGVtqa/Hq47t0lIC/kKcGeMOV4YHirmhJIf16zqcHw6UsyF7KX6/H/96H6VbbfzdFLAdKKY8p4h1S7dyQ0lvwUVGH5WwjA6Vm9mc7YwMwYe/cBObYhcGAeDLcc6dDlR1CcXF5T1/u7J9pNyTk+eEse3268QCVVRmL8WHD39OFc5twc6Ubl5BbxUcoHjjDpavX9fttLMvv4jla9ewlu5v//Hl55+6b7oj264md/nKnqebfT1c0RwoZqsdW/Cku/uRREY5lbCMDrmrWD/YKeHeZBdQ2ONxYyPhQR46N7bChs+fw46tAfJX2uxgFUU9fgznYqqcot7Op/rIL1pN1Zo13LAjj9VdVvHq/riBHZVkn3Ye2u72nHkHgVKKu11xTEROUgnLKNHdlcbOhUG93wzUx9KKZzQStqmqzGZpNwe37WqyT1417POzvHojazdWkl2wqYcsAYrXlrO0qAjsQIe1ojvfJ+wshJHN6vWrYc0GNqxxFs4oWJnfcxnbAXZU5lEwkN9hbBvbl0+h+lekVyphGSVy8PtPP18ZuzCoN3ashHsqkzMZCds21bk5rOzmdYEd2Sxdd/JrH/7lsHlzD0Vol1Ic8LFyXaHz+TqFDVBOhynvDgth+DetZ2mADst6dq/zvb0d3raq8tRovQuf1oQW6Q+VsEhv7HLK8fc8SjyTkbBdBd2eZ7Wpyl7afm42UMzGHctZvbqKkrXF0HEK2baxyaewuxO5ffLh72t0a5dSUr2Koh6GtNlDdY+vHaB4YwnVlZVU5vZ4qZxI0lEJS/Kzbar7Mx1dbXd7O1K13dNNSgxsJGzb2B1GiJ2mnDu+qrQcljrDVTtQzMaSHIpiVyX77LWsWbOWvNWxVaaGc8RpByjeWEVBUWE37xGgvCyXnK7D+J75lrKqoIe8Pj+F63yUFgcoWDnY3ZlEEo9KWEaJnqajN1NlA34/y1nDmht2kNvhMunKykrIzcHOz8dnByjdWt5eqtWVQN8jYUqKKS537hmuzF0Vu83HJlC1nJUdR7C+fNatC1Bc7KMw3yZQupVyVrJuna/DU9ax3lfMmg1rKMtdxeqiXs7lngE7UMrWctqnuJ1HCZRupWRHNcRGrOsH8t6+3jd8AB/5gxvSiyQslbCMDtk9jWTzYhdG+chft6nb23NO8flP27CgsO9djTouldVp2SwblnYd8dkBm6WF+diBAL787o/v8xeyaf3K/q95nZs9gJGlTWlpAJ/fT2GXKejYamH+UtZuXc76Qe8n3MEA9mQWSUZWRUVFdN68eaZziIiIjCp79+7FZTqEiIjIaKUSFhERMUQlLCIiYohKWERExBCVsIiIiCEqYREREUNUwiIiIoaohEVERAxRCYuIiBiiEhYRETFEJSwiImKISlhERMQQlbCIiIghKmERERFDVMIiIiKGqIRFREQMUQmLiIgYohIWERExRCUsIiJiiEpYRETEEJWwiIiIIR7TAUSkg3ADtFZD8BgEayAU+2ewBsKNEG2DSBtEW2Hm/4XMxUQbj9P4v/+F5faCOwXL4wFvBq708ViZE3FlTMDKmOD8+9ipWCmppj+liMSohEVGWrgBGl9z/jTvg5YD0LLf+RM8DkT7d5yM+ZC5mPDR/bS99nj/XmNZuDIm4prowzV+Oq6JPtyTcnBPPQf3tDlYqZmD/VQiMggqYZHhFDoOtX+D+uehcSc07ISWSiBiJk80SqTxOJHG41C9q/P3LAvX+Ol4zpqL+6x5eGYswjPzAqz0cWayiowCKmGRodSyH05sc4q3rgya9mKscAcqGiVywqbthA17/uo8ZrlwZ83CM/NCPLkXkDJ7Ca7xZ5nNKZJEVMIiZyLSAieehuOPwfE/QfOb9Hs6ORFEI4SPvkX46Fu0vrgFLAt31ixS5l5Cytw8UmZdDO4U0ylFEpZKWGSgwnVw7FE4+ht45y8QaTadaOREo4SP7id8dD8tf3sIy5tOytlL8S58PynzL8dKzTCdUCShqIRF+iPcADW/g7d/De88DpFW04niQrStmbY9T9O252ksj5eUOZfgXRQrZK8KWaQvKmGR3tSWweG7nVFvuNF0mrgWDbW1F7I3He/CK0n1X4Mn53zT0UTilkpY5HSh43D4ATh0NzTtNp0mIUXbmml9uZTWl0txT51D6sVXk3rhR3WltchpVMIiJzXvhaoNcORXo+s87zALv72PpsfW0/zkT/Fe9DHSLvkk7kk5pmOJxAWVsMiJv0L1nVDzRxLmdqIEFA220Pr8b2gNlOA99zLS8j6FZ+aFpmOJGKUSltHrnSfgwLeh7jnTSUaXSIS2N7bR9sY2PLkXkr7iVlLOfrfpVCJGqIRl9Kl9BvZ/E2q3m04y6oUqX6H+/lvxzLqYjCu+gGfWu0xHEhlR2kVJRo+Gl2HnlfDK5SrgOBM68CJ1991M/f23ErLfMB1HZMSohCWJxVauCtXCm1+El5bAO0+SVCtaJZNolOBbz1N316do/MM6oi31phOJDDuVsCQxC448CC+cC3YxRMOmA0l/RCK0Pv8ban+8ktZXfm86jciwUglLcmp8HV65DPZ8GtqOmE4jgxBpPE7jltuou+dGwm/vMx1HZFiohCW5hBvhrX+DFy9yLsCShBeqfJnan99A0582EG3T/duSXFTCkjyO/gZemA9V6yEaNJ1GhlI4RMvf/ofan6ykbdefTacRGTIqYUl8oVp4vQB2fwJaq02nkWEUqXubhl9/g4ZNq4m2NJiOI3LGVMKSoGJXONc/Dy9eCMe2mI0jI6ptz9PU/mwVoepdsUd0xbskJpWwJCgLqjfAy5dCywHTYcSAyAmbuntupKXsQcAyHUdkUFTCknhCJ2BXPvz9qxBtM51GTAoHaXr8R9Q/9BXdVywJSSUsCSI23Vi3AwIXQI3uH5V2wYpnqC2+jlDVa7FHND0tiUElLAnCgqofOvf+th40HUbiUKT2MHX33kjLsw+g6WlJFCphiX/hJtj1MXjr67r1SHoXDtH05x8709PBFtNpRPqkEpb4FqyBV1dAzR9MJ5EEEqx4hvr7biHaXGs6ikivVMISv1oq4ZU85zYkkQEKVe+i7pefJVJ72HQUkR6phCU+Nb4GL18CTRWmk0gCCx87QN0vP0v47b+bjiLSLZWwxJ/a7fDKe6HNNp1EkkCk7gh199xE6OCrpqOIdKESljgRu6Xk2O9g5wece4FFhki0uZb6B75AsGK76SginaiEJQ5EAQsO3Q27r4WIdsqRoRcNtlC/+au0vlx68hGjeURAJSzGxQq46r9g7y0QDZkOJMksHKLx0e/Q8reH0L3EEg9UwmKYBYd+6dwDrJGJjIRolKbHN3QYEYuYoxIWs449Cm/+KypgGVHRKI2/+67OEYtxKmExp3Y7vHGDpqDFjEiYhl9/XVdNi1EqYTGj8TVnJyRdhCUGRYMt1D/0Fd1HLMaohGXktRyAnR/UbUgSF6LNtdT/6otEao+YjiKjkEpYRlawxrkPWAtxSByJ1B2h/lf/SrS5znQUGWVUwjJywk3w2oegea/pJCJdhI/up/7BL2r3JRlRKmEZAbErn3f/E9S/YDaKSC9C1bto+PU3Yl/pin0ZfiphGQEWHPxPOP6/poOI9ClY8Qwtzz6AFvOQkaASluFXux0O3GY6hUi/Nf2lWLcuyYhQCcvwCh7XvcCSeMIhGn6zlmhLvekkkuRUwjJMYufT9nwSWqvNRhEZhEjtYRpKvhX7SueHZXiohGWYWFD1Azj+mOkgIoMWrHiGlrIH0flhGS4qYRketWWw/1t9P08kzjU9uZFQ1WumY0iSUgnL0Au9A29cD9Gg6SQiZy4couE339D5YRkWKmEZQifPA38KWqvMRhEZQpETh2jc8u3YVzo/LENHJSxDyIIjD0LNH00HERlybXv+StvOx9D5YRlKKmEZOqFaeOvfTKcQGTZNj/+IaGuj6RiSRFTCMnT2/zu0aScaSV6R+mM0P/Vz0zEkiaiEZWg0vASHfmE6hciwayl/hPBhbUIiQ0MlLGco6vx5818hGjYdRmT4RcI0/mGd6RSSJFTCcoYsOHQ31JWbDiIyYkIHX6X1pd+ZjiFJQCUsZyZYA/vXmk4hMuKanvgJ0eY60zEkwamE5cy89XWniEVGmWjjOzQ98RPTMSTBqYRl8Oqeg8P3mU4hYkzri48Sqt5lOoYkMJWwDN5ba4CI6RQi5kQjND3+I9MpJIGphGVwjj/ubNIgMsqFKl8m+PfnTMeQBKUSlsGpvM10ApG40fyXn5mOIAlKJSwDV/NH3ZIk0kGoehfBiu2mY0gCUgnLwFXebjqBSNxp0nKWMggqYRmYd56E+oDpFCJxJ3xoD8F9O0zHkASjEpaBqb7TdAKRuNXyt/8xHUESjEpY+q9xl3NVtIh0K/j35wgf2Wc6hiQQlbD0X/WdOBs2iEi3olFayh40nUISiEpY+qftCLz9sOkUInGv9bU/EWnQUq7SPyph6Z/D90Gk1XQKkfgXDmqHJek3lbD0z+F7TCcQSRitLz1qOoIkCJWw9O3ENmjWxSYi/RU5Xk3wredNx5AEoBKWvh26u8tDZVtWsG5P58cObl/GLdvHdXrOFb+Yw8EeDlu2ZQUrbr+cFbdf3ul1IsmgNbDFdARJACph6V3oBBzr+sMk77wantg9vcMj4yh7HVYsqAOms+47K3hmShVzejrusTk8wB623f40275YDU/NQttBSDJp2/M00eY60zEkzqmEpXfHtkCkpevj849y5WtT2ovz2FS2cYy8LIBDrL1tG2sX9HLcrH3cdc2h2L83MpsMDh4b0uQiZoXaaNv9pOkUEudUwtK7o7/u4RuHeO/iyTwTm5I++EYWLHybmYN5j2OZ7J92ssBFkkfbridMR5A4pxKWngVr4J2nevx2+5R0x6nogRrHw7/NYsW1+wZX4CJxLLg/QLTxHdMxJI6phKVnx0ogGuz5+yenpDtNRQ9M2ZaL2bZwN9drFCzJKBKm7XVNSUvPVMLSs6O/6eMJzpT0A78dzFT0OB7+xQoemPIid12qi1ckebW9rilp6ZnHdACJU+F6OPHXPp+Wd14N33otg5uv7Vik01n3nfn8OeqsM/2Z27OZ+76XuGvBVG4pzmJF4XNcf2wWdx2OwuF3seIvzqvmvu8lFbIkneDBV4i2NmKlZpqOInHIqqioiM6bN890Dok3x7bC69eYTiG9mXU75N5G6MCL1N17s+k00osxq9bjPe8K0zEkzuzdu1fT0dKD438ynUAkaQTf/JvpCBKnVMLSPZWwyJAJ7lMJS/dUwtJV025o7WmxSREZqEjtYcJH95uOIXFIJSxdndhmOoFI0gntf8F0BIlDKmHpqvZZ0wlEkk7w4KumI0gcUglLV7XaSkFkqIUOvmI6gsQhlbB01lrl/BkQZ9ekK7a076p0cPuyU9sUnnr82Bxu+Y6zfWHHbRDLtizjYW3eIEkuUnuYSN0R0zEkzqiEpbNBjILLtsyHxTXtDxybwx1PNXHH7U+z7faXuPnt+azb42zyMPu6bWz7YjX7Y9sgHty+jAemaNlKGQWiUUKakpbTqISls7rnBvb8PefzLfaw9rz2hw6+kQVXHCDPOSB5C5vZf3Rc19cem8Mdrx/jm1olS0aJUNVO0xEkzqiEpbPGgfyQGMfDT8N3T+4L3It9RzOZueAY+x9ZwRXFWax4byMP/zaDz9yq3ZNk9AgfedN0BIkzWjtaOmt8rd9PPbj9PLYt3M1dfTxv5pQmOApk7eOu2/bFXruMhy5/jplbVrBiZxTr/Aqe6keZiySy0JF9piNInFEJS7u2QxDs/xVSVUfTeXNn+wYMMIkrgPundH7ewaMZzJnS2P7AsTnccbSSuxbM4Za3q3jg9rcp+8V5PHzskM4NS1KLNr5DpKEG15jJpqNInFAJS7uGgZ2vyrtmG9tO7vGw53yu2H3UGc0ey4TiWZRdupM8pvPQU7Ci8OR533GnpqE5Nif2WB0zp4LW6JLRIHzkTZWwnKISlnYDmIruVdY+vnnFMj5z++WAs0Xh2tgIt2zLxRy4fBvXx573makr+Mzt2c50tEbBMgqEj+wj5ZxlpmNInFAJS7vmMzhfNX8nT81v/3Lmpc+x7dKuT8u7Zlvsqun2r7dpx0QZRcI1mvORdro6Wtq1HjCdQCTpRU7YpiNIHFEJS7uWStMJRJJe5B2VsLRTCUs7lbDIsNNIWDpSCYuj7QhEmk2nEEl60VAbkXotli4OlbA4WqtNJxAZNSK1h01HkDihEhZH8KjpBCKjRrTphOkIEidUwuIYwEpZInJmIs21piNInFAJi0MlLDJiok0qYXGohMWhEhYZMdGmd0xHkDihEhZHqMZ0ApFRI6KRsMSohMURbjCdQGT0aNPtgOJQCYsj0mo6gcioEQ23mY4gcUIlLI6ofiiIjJhwyHQCiRMqYXFEVMIiIyUaDpqOIHFCJSwOTUcnIMt0ABmskH7pFYdKWBxRTY8lFgtmfBlw1iKWxBKN6O+bOFTC4nClmE4gA+H7AnjGA1Gan77LdBoZIMvlMR1B4oRKWByuNNMJpL8yF8M5GwBo2fEwoYOvGg4kA+bWL73iUAmLw5VuOoH0hysDztsMrlTCNZU0PbbedCIZBEslLDEqYXFoJJwY5myAjPMgHKT+7s+ZTiOD5VEJi0MlLA6VcPybUgDTPw9AQ8m3iDRq/eGEpZGwxKiExaESjm+pM2He3QC07f4Lbbv+bDiQnAkrRX/fxKESFod7jOkE0hPLAwseAs8Eog3Hafj1100nkjPkyphgOoLECZWwOFKmmk4gPcn9Jox/D0Qj1N5zI0QiphPJGbLSx5uOIHFCJSwO7zTTCaQ7498Lud8CoOnPPyZSU2k4kAwFK0MlLA6VsDhSVMJxxzPJmYbGRejgq7SUPWg6kQwRV8ZE0xEkTqiExaGRcJyx4Ny7ITWbaFsTdQ98wXQgGUIaCctJKmFxqITji+/zkLUSiFL/P1+CYIvpRDKEXOP0900cKmFxpGQ5V+GKeZmL4JwfAbFlKQ+8ZDiQDCl3Cq5xU0ynkDihEpYYC1JnmA4hrnRYsBlcaYRrDmpZyiTkGj8NLP3oFYf+T5B26fNMJ5Bz7oTMhbFlKT9rOo0MA/cEn+kIEkdUwtIu41zTCUa3rJXOFoVAw5bbtCxlknJN1IyTtFMJS7t0lbAxqTlw7j0AtL3xFG2v/clwoOT1QsUENh7r/JhdNZY1Va5Oz7n2pTTsPo7T13O6456UPcBXSDJTCUs7jYTNsNyxZSknEm08TsMjXzOdKKktmdzGX2s6bqDg4vmj8J7JESCFjc9O4LmMFmb1eIT+PKdn7qlzBvEqSVYqYWmnEjZj5r/D+EudZSnvvVnLUg63rCCXHU3hhZNfN3l5liDvzgAIUvSeExRN7u0A/XlOz9xnzR3cCyUpqYSlXepMZ9N4GTnj3wOzbgOg6c8/IXJ0v+FAo0GQZVO8PBebkrZrUmBKGyNxuZSVNhbX+LNG4J0kUaiEpbOxF5lOMHp4JsKCTYCLUNVOWsp+ZTrRqNE+Jd1xKnr4uaedMyLvI4lDJSydjV1qOsEoYcG8X0JqDtG2Zuruv9V0oNHl5JR0p6no4eeeptsApTOVsHQ2TiU8IqbfDFMK0LKUpjhT0o/sGbmpaABP9qIReidJFCph6WzcMtMJkl/mQpjzYwBayn9N6MCLhgONTksmt3Gg6fSpaOfK54IXU9nfmErR9vHOrUtNaax5diyPNvXynH5ImXnhcHwUSWBWRUVFdN48TZFIBzumQ9th0ymSkysd3lUOmYsJH6+i9v993HQiGSGuMZOZ8LUnTMeQOLJ3716NhKUbmpIePuf8F2QuhnCI+rs/ZzqNjCDPzAtMR5A4pBKWrsZfajpBcsr6OPgKAWjcehuRhhrDgWQkeTQVLd1QCUtXEz9gOkHySc2Gc+8FoG3P07TufMxwIBlpnlkXm44gcUglLF1lLtK2hkPJcsP8B8EziWjjOzRs1rKUo40rcxIe3wLTMSQOqYSlexoND52cb8CEyyEaoe7emyESMp1IRphnju46kO6phKV7kz5oOkFyGHcJzPoOAM1PFhM++pbhQGKCd+4lpiNInPKYDiBxauL7wfJAVKO2QfNMcJaltNyEqnfRvP0+04nklBQ2PpvJ09EolhXhk++q5+rYqll21ViKDjjjE2tqE789N+jcJ/xSGvujUS5fUEtRlvPcFyrG8o+c9td2y3KRcs7y4f04krBUwtI9z0Rn4Y7aZ00nSVAWzLsL0nK1LGXccfHoS5kw/wQlWad9qymNDZVhvnFpPUtw8ehL49h47AQFzSnkzj/B+ow01lSlQFYQu2osj2Q0sr6PJS89M87Dypw4bJ9GEpumo6VnU/7JdILEddbnYv/9otQ/9GVoazKdSE5q8vIsLRScXsDEdlTKbWEJABHePSVMZXM3Pyab0thwNMjqnL43fvAuvPJME0sSUwlLz6Z8wrmyVwYmYwHM/QkALc//ltD+gOFA0kmT69RykwXbx3Ptsxntewt340CTG9/kIJV7JnDtSym8JyfMo3tcXPeulr7XnLYsvIuuGsLwkmw0HS09854F4y+DE0+ZTpI4XGmw4GFwZRA+Xk3TH9aZTiTdOHWuF3ihYgKPVLWwpJtRrS89DE1ARgvr3+NssmFXjaVkZj0zKiZQ8Ha007FO58lejGv8tGH7HJL4NBKW3k293nSCxHL2D2DMBc6ylPfcaDqN9IOzkUP3Mz52s5tZGeH2B5rS2NDUQlFGGo80trDx0no+2ZgW29ihK42CpS8qYendlAKwvKZTJIbJH4MZXwKg8dHbidQfNRxIupURYdbRlNgUtItHD3q5bLIzkvVNDkJlWux7KZRUdtxlyeVMQ3ca9UaYkdnD+7hceBfpfLD0TtPR0jvPRJj0Aaj5vekk8c3rg3OdW5CCFc/Q+ur/Gg4kPcpoYXXuWIq2jwfAmtrIb7O6/97sWfUUxa5+fqFiHFUzT3B17HnXZU6gaHuqMx3dzRXSKXMuwTV2yrB/HEls2spQ+lbzB9j1MdMp4pflhvOfgAkriDad4J0fXqVVsYQx19+Jd8EK0zEkjmkrQ+mfyR+BtFmmU8SvnK/BhBXOspT33aICFlxjJuOdf5npGJIAVMLSDxZEA3FjAAAMJElEQVRMv8V0iPg0bhnM+i4AzX/5GeEj+wwHknjgvSgfLP14lb7p/xLpn+k3gSvVdIr44hnv3I5kuQn943Wan7nXdCKJB5aLtItXmk4hCUIlLP2TMgWyCkyniCMWzPtvSJtFNNhC3X2fNx1I4oT33PfimpRtOoYkCJWw9N+ML5pOED/O+heYch0QpWHTai1LKaek5X3KdARJICph6b9xy2H8e02nMC/jXJj7UwBaX9hC8O/PGQ4k8cKTvQhP7kWmY0gCUQnLwOT+u+kEZrlSYcFmcGUQeecfNP7+e6YTSRxJu0SjYBkYlbAMzMSrYOwS0ynMmf19GHMhRELUaVlK6cA1cQbehe83HUMSjEpYBm7mKB0NT/4IZH8FgMZHv0uk7m3DgSSepK+4BSzLdAxJMCphGbisj0PmYtMpRpZ3Opx7PwDBvc/S+oqW8ZR27qxZpF7wUdMxJAGphGVwcr9tOsEIcsH8ByEli2hzLfWbVpsOJHEmfcXnNQqWQVEJy+BMuda5Wno0yPk3mPg+iEaov1fLUkpn7mlz8C7WloUyOCphGbxz7gSS/Lf/cUth9h0ANG/7b0JH3jQcSOKKZZFx1ZdJ+r8HMmxUwjJ445Y7I+JkdWpZSg8h+w2an/6l6UQSZ7zzLydlbp7pGJLAVMJyZs7+QZKuKW3B3J9D2uzYspTawEI6s7zpZHz4a6ZjSIJTCcuZSZsNvkLTKYbetE/D1OuBKA0PfxVaG00nkjiTftlNuMZPMx1DEpxKWM7crNsgdYbpFEMnfR7MLQag9cVHCe7bYTiQxBv3lNlaI1qGhEpYzpx7HMzZaDrF0HClwnmbwZ1J5IStZSmlK8si46PfAJfHdBJJAiphGRpZKyHrGtMpztzs/4QxFznLUt79OYhETCeSOONd9AFSZi8BoqajSBJQCcvQmftT8EwwnWLwJn0Qsp2FOBpLv6dlKaULK20MGR/66smvjGaR5KASlqHjnQ5nf990isHxngXzHwAg+GYZrS/9znAgiUfpK27FNWay6RiSRFTCMrSmfx4mrDCdYoBcTgGnTHWWpXzo/5gOJHHIk7OYtGXOFfMiQ0UlLENv/oOQkkCjhZzVzhaN0Sj1931ey1JKF1b6eMZ84gex9aE1DS1DRyUsQy91Bsy7m4T4YTV2CcxeB0Dz0/9N6PBew4Ek7lgWmStvxzX+LNNJJAmphGV4ZF0Nvs+bTtE799j2ZSkP7aF5212mE0kcSlt+A975l5mOIUlKJSzD55wfQeZC0yl6NrcY0s8hGmyl7t6bTaeROOTJXhTboEHngWV4qIRl+LjSnJGmK8N0kq6mfcr5Q5SGzWu0LKV0YaWPc84DuzwkxKkVSUgqYRlemYth/r3E1Q+x9Dkw92cAtL5USvDNMsOBJO5YFplX34ZrwnTTSSTJqYRl+E25DmZ+3XQKh+V1RufuMUROHKKx9LumE0kcSlt2Pd4FiXarnSQilbCMjNn/CZM/YjoFzL4DxvohEqbuHi1LKV15sheR8YGvoPPAMhJUwjJCLFiwCTIWmIsw8SrI+TcAGn//PSK1R8xlkbjkmpTNmH/+sc4Dy4hRCcvIcY+DRb8zs5CHdxrM/xUAwX07aH3x0ZHPIHHNNWYy4z7zc1yZE01HkVFEJSwjK30uLPojuDNH8E1dcO794J1GtLmO+k1fHsH3lkRgpWYy9tM/xTUxifbFloSgEpaRN24pnFfiXCQ1ErK/4uyQFI1Sf/+tENKylNLO8ngZc8MG3GedazqKjEIqYTFj0gdg/n0M+/+CYy8+tbNT819/SejQnuF9P0ksLheZBXfE9gcWGXkqYTEkClNvgDk/YtgugHGPhQWbwUohfHgvzU/9YnjeRxKTZZH54a/jXfh+00lkFFMJiyGx4p3xJZj1HwxLEc/dCOlziIZaqb/3pqE/viS09MtuJvXd/4RuRRKTVMJiXu434ewfMKRFPPWfYdpngCgND68h0tIwdMeWhJe29BOkX3ErTgHrViQxx2M6gAjg3L/rSoN9Q7BYfvo5MO/nALS+/ActSyntLIv0y24i/YovoAKWeKASlvgxowhcqbD3C8AgV7I6tSzlWCK1R2j83XeGNKIkMMtFxoe/RtrST6AClnihEpb4Mv0WZ0RccSNEB3Er0ez/gLFLtCyldObxMuaa7+JddCUqYIknOics8Wfap2HR752rmwdi4pWQ42wU0fjH7xM5cWgYwkmisVIzGfvJn8QKGFTAEk9UwhKfJn0QLnwGUvu5glHK1PZlKf9eTusLJcMYThKFK3MSYz97Fylnv9t0FJFuqYQlfo25EC56DjLP7+OJLph/P3jPItpST/1DRSORTuKca+IMxt50Lx6fwU1DRPqgEpb4lpoNFz3r7IDUk+wvwaQPaVlKOcU9fT7jbr4f9+SZpqOI9EolLPHPPRbOfyx2vve083lj3gVn/xCAlu33ErLfGPl8Ej8si9QlBYy/5QFcYwzs1iUyQLo6WhKEy1kDetwyqPgXCNWCewyc97CzLOWRN2l6sth0SDHISs0k8+Pf7nABlkj8UwlLYsm6GjID8HqBsztS+jxnWcp7bjSdTAzyTJ/PmOt+iGtStukoIgOiEpbEkz4H/K/GvojS8MjXtCzlaGVZpL37E2R88Kvg1o8zSTz6v1YSnEW4+nXTIcQAK20smVd/G+957zMdRWTQdGGWJLzxRb/VdnSjjGfGQsZ/4WEVsCQ8jYQl4VkZExhz3Q9p2/VnGv/wfaJNJ0xHkmFieTNIv/xm0i75JLjcpuOInDGVsCQN76Kr8Mz201T6Pdre2GY6jgwly8K74AoyPrwG17hpaA9gSRYqYUkqrsxJjLn+Ttp2PkbT4z8iUn/MdCQ5Q+7JM8n4yNdJmbO8w6Na/1mSg0pYkpL3/A+RsuByWrbfT0vZg0SDLaYjyQBZKamkXfpZ0i/9LLhT0O5HkoxUwpK0rJR00q/4Aqn+a2h6YiNtO/8EUW1tmAhS5l1K5ke+hmtixw08VMCSfFTCkvRc46YxpuAOQsuup+lPdxKqfMV0JOmBO2sW6VcW4V2wwnQUkRGhEpZRwzNjIeNuvJe215+g+cmfEa6pNB1JYlyTskm//GZSL/goWBrxyuihEpZRx7vwSrwL30/b7qdo2X4/oX9osQ9TXOPPIv3ym0i96OO65UhGJZWwjFIW3vPeh/e89xF86wVatt9H8K1yiOrWl5HgnjaXtLxPkXr+h2Llq//uMjqphGXUSzl7CSlnLyF0aA8t2++jbfdfIKILuIacZZFyzjLS8j5FyjnLTv+mkUgipqmERWI80+cz5hM/IHK8mpYXt9D2yh+J1B81HSvhWenjSb3gw6T6r8E99RzTcUTiilVRURGdN2+e6Rwi8ScaIbjvOVpfLiW452mioTbTiRKHZZEyy0/qxVc763q7U0wnEok7e/fu1UhYpEeWi5S5l5Ay9xKiLfW0vfY4ra/8nlD1Lp077o5l4Z46B+/iq0hd9AHt7SvSDyphkX6w0saSuuRaUpdcS/jYAYJvbKNt77OEqnZCJGw6njmWhXvK2XgXXYl30VW4s2aZTiSSUDQdLXIGoi0NBP++g+DeMoJvlhFpqDEdadhZ3gznYra5eaTMvQTXBJ/pSCIJSdPRImfIShsTu+/4SgBC9hsE3ywj9NYLhA69QbSlwXDCM2d5M/BkL8Iz8wI8s/ykzLoIXPrRITIU9DdJZAh5fAvw+BbAZTcBEK45SNjeTegfuwnZuwkfqiDa2mg4ZS88XtxZs/BMm4s7ezEpM8/HfdY8sFymk4kkJZWwyDByT56Je/JMvIs/GHskSvhYJWF7N+GaKiInDhGpPUTkxGHCdUdgJK7AtiysjAm4J/hwTfThnpSDe9oc3NPmOud0tXKVyIhRCYuMKAt31qzuL2CKRok01LQXc+1hoq1NRIMtzlaMwRaibc3t/x5sJhpqw3K5wZ2C5fE6twK5PVgp6VgZE3BljG//Z/oEXOOn4Zrgw/Kmj/gnF5GuVMIi8cKycI3NwjU2C3IWm04jIiNAJ3pEREQMUQmLiIgYohIWERExRCUsIiJiiEpYRETEEJWwiIiIISphERERQ1TCIiIihqiERUREDFEJi4iIGKISFhERMUQlLCIiYohKWERExBCVsIiIiCEegL1795rOISIiMur8fwtYbWDHIGGzAAAAAElFTkSuQmCC;" vertex="1" parent="1">
          <mxGeometry x="647.68" y="500" width="299.59" height="180" as="geometry" />
        </mxCell>
      </root>
    </mxGraphModel>
  </diagram>
</mxfile>
